<?xml version="1.0" encoding="UTF-8"?>
<svg viewBox="0 0 99.905365 84.755623" xmlns="http://www.w3.org/2000/svg">
 <g transform="translate(-327.19 -475.7)" fill="none" stroke="#000">
  <path transform="matrix(.38456 .60266 -1.3835 .1321 1046.6 359.45)" d="m124.25 512.69a21.213 21.466 0 1 1 -42.426 0 21.213 21.466 0 1 1 42.426 0z"/>
  <path d="m361.9 500.58 14.41 30.738 14.736-30.172c-9.656 1.7526-19.491 1.2519-29.146-0.56635z"/>
  <path d="m375.81 533.33 3.0304 24.244 18.183-27.527c-5.7491 1.9756-13.495 2.6202-21.213 3.283z"/>
  <path d="m376.17 533.22 1.9368 25.604-23.765-28.076c5.8203 1.755 14.09 2.1037 21.828 2.4717z"/>
  <path d="m376.82 532.32 14.708-30.978 22.162 22.139c-7.2914 2.9873-24.295 11.287-36.871 8.8388z"/>
  <path d="m391.62 500.94c10.714-1.9565 14.915-5.523 16.607-10.804l5.625 32.679-22.232-21.875z"/>
  <path d="m409.12 493.44 15.268 5.3571c1.1223 2.4926 3.329 7.5705 1.5178 12.232-2.0858 5.3684-6.2295 9.3309-11.339 12.5l-5.8929-30.357"/>
  <path d="m406 484.69c1.4942 1.9758 2.074 3.9267 2.8571 8.0357l15.804 5.625-18.661-13.661z"/>
  <path d="m376.66 532.55-14.53-31.514-28.412 19.996c4.8458 4.4483 30.366 13.966 42.942 11.517z"/>
  <path d="m361.56 500.71c-10.214-3.7807-14.985-7.4845-15.738-12.978l-11.887 32.526 27.624-19.548z"/>
  <path d="m347.48 484.37-18.214 15.625c-4.9649 10.529 3.3555 19.115 3.9286 20.71l14.286-36.335z"/>
  <path d="m332.98 521.01 45.253 38.404-23.929-29.286c-8.2431-1.9042-14.479-5.8156-21.324-9.118z"/>
  <path d="m414.38 523.23-36.513 36.724 18.929-29.464c6.2875-2.4686 11.951-4.955 17.585-7.2602z"/>
 </g>
</svg>
